# xmcd
#
# Track frame offsets: 
#        150
#        14296
#        32726
#        50426
#        75021
#        93260
#        108216
#        132871
#        148673
#        163065
#        179791
#        205887
#        219982
#
# Disc length: 3085 seconds
#
# Revision: 0
# Processed by: cddbd v1.5.2PL0 Copyright (c) Steve Scherf et al.
# Submitted via: ExactAudioCopy v0.95b4
#
DISCID=a80c0b0d
DTITLE=Kurz and Lang - Es ist Zeit...
DYEAR=2010
DGENRE=Blues
TTITLE0=Der Tramper
TTITLE1=Ist das denn so richtig?
TTITLE2=Alltag
TTITLE3=Es ist Zeit, dass du gehst
TTITLE4=Die Nacht
TTITLE5=Talkshow
TTITLE6=Der alte Mann
TTITLE7=Die Zeit
TTITLE8=Shit happens
TTITLE9=Rammlerbude
TTITLE10=Zu wahr
TTITLE11=Sandkorn
TTITLE12=Ich fühl grad so... (Live)
EXTD=
EXTT0=
EXTT1=
EXTT2=
EXTT3=
EXTT4=
EXTT5=
EXTT6=
EXTT7=
EXTT8=
EXTT9=
EXTT10=
EXTT11=
EXTT12=
PLAYORDER=
